<mxfile host="app.diagrams.net" modified="2024-03-24T13:49:36.042Z" agent="Mozilla/5.0 (Windows NT 10.0; Win64; x64) AppleWebKit/537.36 (KHTML, like Gecko) Chrome/123.0.0.0 Safari/537.36" etag="_DI9aVQU5HDDQu0gdq7s" version="24.1.0" type="device">
  <diagram name="Σελίδα-1" id="rwquavX2IBTPj5kLyaUv">
    <mxGraphModel dx="1430" dy="812" grid="1" gridSize="10" guides="1" tooltips="1" connect="1" arrows="1" fold="1" page="1" pageScale="1" pageWidth="827" pageHeight="1169" math="0" shadow="0">
      <root>
        <mxCell id="0" />
        <mxCell id="1" parent="0" />
        <mxCell id="qPm-kybPAPJAVNP7pBJh-1" value="Χρήστης" style="shape=umlActor;verticalLabelPosition=bottom;verticalAlign=top;html=1;" parent="1" vertex="1">
          <mxGeometry x="10" y="310" width="30" height="60" as="geometry" />
        </mxCell>
        <mxCell id="qPm-kybPAPJAVNP7pBJh-4" value="What To Wear - Use Cases" style="shape=umlFrame;whiteSpace=wrap;html=1;pointerEvents=0;width=170;height=30;" parent="1" vertex="1">
          <mxGeometry x="80" y="20" width="670" height="670" as="geometry" />
        </mxCell>
        <mxCell id="qPm-kybPAPJAVNP7pBJh-5" value="Σύνδεση" style="ellipse;whiteSpace=wrap;html=1;" parent="1" vertex="1">
          <mxGeometry x="100" y="60" width="90" height="40" as="geometry" />
        </mxCell>
        <mxCell id="qPm-kybPAPJAVNP7pBJh-6" value="Αλλαγή Στοιχείων Σύνδεσης" style="ellipse;whiteSpace=wrap;html=1;" parent="1" vertex="1">
          <mxGeometry x="100" y="110" width="90" height="50" as="geometry" />
        </mxCell>
        <mxCell id="qPm-kybPAPJAVNP7pBJh-9" value="Αλλαγή Κωδικού" style="ellipse;whiteSpace=wrap;html=1;" parent="1" vertex="1">
          <mxGeometry x="260" y="115" width="90" height="40" as="geometry" />
        </mxCell>
        <mxCell id="qPm-kybPAPJAVNP7pBJh-10" value="&amp;lt;&amp;lt;include&amp;gt;&amp;gt;" style="endArrow=open;startArrow=none;endFill=0;startFill=0;endSize=8;html=1;verticalAlign=bottom;dashed=1;labelBackgroundColor=none;rounded=0;exitX=1;exitY=0.5;exitDx=0;exitDy=0;entryX=0;entryY=0.5;entryDx=0;entryDy=0;" parent="1" source="qPm-kybPAPJAVNP7pBJh-6" target="qPm-kybPAPJAVNP7pBJh-9" edge="1">
          <mxGeometry width="160" relative="1" as="geometry">
            <mxPoint x="180" y="220" as="sourcePoint" />
            <mxPoint x="340" y="220" as="targetPoint" />
          </mxGeometry>
        </mxCell>
        <mxCell id="qPm-kybPAPJAVNP7pBJh-11" value="Εγγραφή" style="ellipse;whiteSpace=wrap;html=1;" parent="1" vertex="1">
          <mxGeometry x="100" y="170" width="90" height="40" as="geometry" />
        </mxCell>
        <mxCell id="qPm-kybPAPJAVNP7pBJh-12" value="Φιλτράρισμα" style="ellipse;whiteSpace=wrap;html=1;" parent="1" vertex="1">
          <mxGeometry x="100" y="220" width="90" height="40" as="geometry" />
        </mxCell>
        <mxCell id="qPm-kybPAPJAVNP7pBJh-13" value="Επιλογή Περίστασης" style="ellipse;whiteSpace=wrap;html=1;" parent="1" vertex="1">
          <mxGeometry x="370" y="140" width="90" height="40" as="geometry" />
        </mxCell>
        <mxCell id="qPm-kybPAPJAVNP7pBJh-14" value="Επιλογή Χρώματος" style="ellipse;whiteSpace=wrap;html=1;" parent="1" vertex="1">
          <mxGeometry x="370" y="200" width="90" height="40" as="geometry" />
        </mxCell>
        <mxCell id="qPm-kybPAPJAVNP7pBJh-15" value="Επιλογή Επισημότητας" style="ellipse;whiteSpace=wrap;html=1;" parent="1" vertex="1">
          <mxGeometry x="370" y="280" width="90" height="40" as="geometry" />
        </mxCell>
        <mxCell id="qPm-kybPAPJAVNP7pBJh-16" value="Επιλογή Στυλ" style="ellipse;whiteSpace=wrap;html=1;" parent="1" vertex="1">
          <mxGeometry x="372" y="340" width="86" height="40" as="geometry" />
        </mxCell>
        <mxCell id="qPm-kybPAPJAVNP7pBJh-17" value="Ακύρωση Φιλτραρισματος" style="ellipse;whiteSpace=wrap;html=1;" parent="1" vertex="1">
          <mxGeometry x="480" y="240" width="100" height="50" as="geometry" />
        </mxCell>
        <mxCell id="qPm-kybPAPJAVNP7pBJh-22" value="&amp;lt;&amp;lt;include&amp;gt;&amp;gt;" style="html=1;verticalAlign=bottom;labelBackgroundColor=none;endArrow=open;endFill=0;dashed=1;rounded=0;entryX=0;entryY=0.5;entryDx=0;entryDy=0;" parent="1" target="qPm-kybPAPJAVNP7pBJh-14" edge="1">
          <mxGeometry x="0.2195" y="-2" width="160" relative="1" as="geometry">
            <mxPoint x="190" y="240" as="sourcePoint" />
            <mxPoint x="350" y="240" as="targetPoint" />
            <mxPoint as="offset" />
          </mxGeometry>
        </mxCell>
        <mxCell id="qPm-kybPAPJAVNP7pBJh-23" value="&amp;lt;&amp;lt;include&amp;gt;&amp;gt;" style="html=1;verticalAlign=bottom;labelBackgroundColor=none;endArrow=open;endFill=0;dashed=1;rounded=0;exitX=1;exitY=0.5;exitDx=0;exitDy=0;entryX=0;entryY=0.5;entryDx=0;entryDy=0;" parent="1" source="qPm-kybPAPJAVNP7pBJh-12" target="qPm-kybPAPJAVNP7pBJh-15" edge="1">
          <mxGeometry x="0.3333" width="160" relative="1" as="geometry">
            <mxPoint x="230" y="280" as="sourcePoint" />
            <mxPoint x="390" y="280" as="targetPoint" />
            <mxPoint as="offset" />
          </mxGeometry>
        </mxCell>
        <mxCell id="qPm-kybPAPJAVNP7pBJh-24" value="&amp;lt;&amp;lt;include&amp;gt;&amp;gt;" style="html=1;verticalAlign=bottom;labelBackgroundColor=none;endArrow=open;endFill=0;dashed=1;rounded=0;exitX=1;exitY=0.5;exitDx=0;exitDy=0;entryX=0;entryY=0.5;entryDx=0;entryDy=0;" parent="1" source="qPm-kybPAPJAVNP7pBJh-12" target="qPm-kybPAPJAVNP7pBJh-16" edge="1">
          <mxGeometry x="0.0167" y="-23" width="160" relative="1" as="geometry">
            <mxPoint x="160" y="320" as="sourcePoint" />
            <mxPoint x="320" y="320" as="targetPoint" />
            <mxPoint as="offset" />
          </mxGeometry>
        </mxCell>
        <mxCell id="qPm-kybPAPJAVNP7pBJh-25" value="&amp;lt;&amp;lt;include&amp;gt;&amp;gt;" style="html=1;verticalAlign=bottom;labelBackgroundColor=none;endArrow=open;endFill=0;dashed=1;rounded=0;exitX=1;exitY=0.5;exitDx=0;exitDy=0;entryX=0;entryY=0.5;entryDx=0;entryDy=0;" parent="1" source="qPm-kybPAPJAVNP7pBJh-12" target="qPm-kybPAPJAVNP7pBJh-13" edge="1">
          <mxGeometry x="-0.0928" y="4" width="160" relative="1" as="geometry">
            <mxPoint x="140" y="340" as="sourcePoint" />
            <mxPoint x="300" y="340" as="targetPoint" />
            <mxPoint as="offset" />
          </mxGeometry>
        </mxCell>
        <mxCell id="qPm-kybPAPJAVNP7pBJh-26" value="&amp;lt;&amp;lt;extend&amp;gt;&amp;gt;" style="html=1;verticalAlign=bottom;labelBackgroundColor=none;endArrow=open;endFill=0;dashed=1;rounded=0;entryX=1;entryY=0.5;entryDx=0;entryDy=0;exitX=0;exitY=0.5;exitDx=0;exitDy=0;" parent="1" source="qPm-kybPAPJAVNP7pBJh-17" target="qPm-kybPAPJAVNP7pBJh-12" edge="1">
          <mxGeometry width="160" relative="1" as="geometry">
            <mxPoint x="290" y="250" as="sourcePoint" />
            <mxPoint x="450" y="250" as="targetPoint" />
          </mxGeometry>
        </mxCell>
        <mxCell id="qPm-kybPAPJAVNP7pBJh-27" value="Επιλογή Συνόλου" style="ellipse;whiteSpace=wrap;html=1;" parent="1" vertex="1">
          <mxGeometry x="100" y="340" width="90" height="40" as="geometry" />
        </mxCell>
        <mxCell id="qPm-kybPAPJAVNP7pBJh-28" value="Αγορά Συνόλου" style="ellipse;whiteSpace=wrap;html=1;" parent="1" vertex="1">
          <mxGeometry x="250" y="340" width="90" height="40" as="geometry" />
        </mxCell>
        <mxCell id="qPm-kybPAPJAVNP7pBJh-29" value="&amp;lt;&amp;lt;extend&amp;gt;&amp;gt;" style="html=1;verticalAlign=bottom;labelBackgroundColor=none;endArrow=open;endFill=0;dashed=1;rounded=0;exitX=0;exitY=0.5;exitDx=0;exitDy=0;entryX=1;entryY=0.5;entryDx=0;entryDy=0;" parent="1" source="qPm-kybPAPJAVNP7pBJh-28" target="qPm-kybPAPJAVNP7pBJh-27" edge="1">
          <mxGeometry width="160" relative="1" as="geometry">
            <mxPoint x="150" y="430" as="sourcePoint" />
            <mxPoint x="310" y="430" as="targetPoint" />
          </mxGeometry>
        </mxCell>
        <mxCell id="qPm-kybPAPJAVNP7pBJh-30" value="Δήλωση Αρέσκειας Συνόλου" style="ellipse;whiteSpace=wrap;html=1;" parent="1" vertex="1">
          <mxGeometry x="100" y="390" width="90" height="50" as="geometry" />
        </mxCell>
        <mxCell id="qPm-kybPAPJAVNP7pBJh-31" value="Επεξεργασία Ρυθμίσεων" style="ellipse;whiteSpace=wrap;html=1;" parent="1" vertex="1">
          <mxGeometry x="100" y="460" width="90" height="40" as="geometry" />
        </mxCell>
        <mxCell id="qPm-kybPAPJAVNP7pBJh-32" value="Επεξεργασία Προφίλ" style="ellipse;whiteSpace=wrap;html=1;" parent="1" vertex="1">
          <mxGeometry x="370" y="390" width="90" height="40" as="geometry" />
        </mxCell>
        <mxCell id="qPm-kybPAPJAVNP7pBJh-33" value="Επιλογή Χώρας" style="ellipse;whiteSpace=wrap;html=1;" parent="1" vertex="1">
          <mxGeometry x="370" y="440" width="90" height="40" as="geometry" />
        </mxCell>
        <mxCell id="qPm-kybPAPJAVNP7pBJh-34" value="Δήλωση Σωματικών Διαστάσεων" style="ellipse;whiteSpace=wrap;html=1;" parent="1" vertex="1">
          <mxGeometry x="370" y="490" width="90" height="55.5" as="geometry" />
        </mxCell>
        <mxCell id="qPm-kybPAPJAVNP7pBJh-35" value="Αποδοχή Όρων και Προϋποθέσεων" style="ellipse;whiteSpace=wrap;html=1;" parent="1" vertex="1">
          <mxGeometry x="365" y="560" width="100" height="60" as="geometry" />
        </mxCell>
        <mxCell id="qPm-kybPAPJAVNP7pBJh-36" value="&amp;lt;&amp;lt;extend&amp;gt;&amp;gt;" style="html=1;verticalAlign=bottom;labelBackgroundColor=none;endArrow=open;endFill=0;dashed=1;rounded=0;entryX=1;entryY=0.5;entryDx=0;entryDy=0;exitX=0;exitY=0.5;exitDx=0;exitDy=0;" parent="1" source="qPm-kybPAPJAVNP7pBJh-32" target="qPm-kybPAPJAVNP7pBJh-31" edge="1">
          <mxGeometry x="-0.0188" y="-5" width="160" relative="1" as="geometry">
            <mxPoint x="180" y="570" as="sourcePoint" />
            <mxPoint x="340" y="570" as="targetPoint" />
            <mxPoint as="offset" />
          </mxGeometry>
        </mxCell>
        <mxCell id="qPm-kybPAPJAVNP7pBJh-37" value="&amp;lt;&amp;lt;extend&amp;gt;&amp;gt;" style="html=1;verticalAlign=bottom;labelBackgroundColor=none;endArrow=open;endFill=0;dashed=1;rounded=0;entryX=1;entryY=0.5;entryDx=0;entryDy=0;exitX=0;exitY=0.5;exitDx=0;exitDy=0;" parent="1" source="qPm-kybPAPJAVNP7pBJh-33" target="qPm-kybPAPJAVNP7pBJh-31" edge="1">
          <mxGeometry x="-0.3293" y="3" width="160" relative="1" as="geometry">
            <mxPoint x="150" y="570" as="sourcePoint" />
            <mxPoint x="310" y="570" as="targetPoint" />
            <mxPoint as="offset" />
          </mxGeometry>
        </mxCell>
        <mxCell id="qPm-kybPAPJAVNP7pBJh-38" value="&amp;lt;&amp;lt;extend&amp;gt;&amp;gt;" style="html=1;verticalAlign=bottom;labelBackgroundColor=none;endArrow=open;endFill=0;dashed=1;rounded=0;entryX=1;entryY=0.5;entryDx=0;entryDy=0;exitX=0;exitY=0.5;exitDx=0;exitDy=0;" parent="1" source="qPm-kybPAPJAVNP7pBJh-34" target="qPm-kybPAPJAVNP7pBJh-31" edge="1">
          <mxGeometry x="-0.2154" y="-3" width="160" relative="1" as="geometry">
            <mxPoint x="150" y="570" as="sourcePoint" />
            <mxPoint x="310" y="570" as="targetPoint" />
            <mxPoint as="offset" />
          </mxGeometry>
        </mxCell>
        <mxCell id="qPm-kybPAPJAVNP7pBJh-39" value="&amp;lt;&amp;lt;extend&amp;gt;&amp;gt;" style="html=1;verticalAlign=bottom;labelBackgroundColor=none;endArrow=open;endFill=0;dashed=1;rounded=0;entryX=1;entryY=0.5;entryDx=0;entryDy=0;exitX=0;exitY=0.5;exitDx=0;exitDy=0;" parent="1" source="qPm-kybPAPJAVNP7pBJh-35" target="qPm-kybPAPJAVNP7pBJh-31" edge="1">
          <mxGeometry x="-0.2101" y="-8" width="160" relative="1" as="geometry">
            <mxPoint x="230" y="570" as="sourcePoint" />
            <mxPoint x="390" y="570" as="targetPoint" />
            <mxPoint as="offset" />
          </mxGeometry>
        </mxCell>
        <mxCell id="qPm-kybPAPJAVNP7pBJh-40" value="Ανέβασμα Συνόλου" style="ellipse;whiteSpace=wrap;html=1;" parent="1" vertex="1">
          <mxGeometry x="100" y="590" width="90" height="40" as="geometry" />
        </mxCell>
        <mxCell id="qPm-kybPAPJAVNP7pBJh-41" value="Επιλογή Ετικετών" style="ellipse;whiteSpace=wrap;html=1;" parent="1" vertex="1">
          <mxGeometry x="260" y="630" width="90" height="40" as="geometry" />
        </mxCell>
        <mxCell id="qPm-kybPAPJAVNP7pBJh-42" value="Επιλογή Φωτογραφίας" style="ellipse;whiteSpace=wrap;html=1;" parent="1" vertex="1">
          <mxGeometry x="260" y="580" width="90" height="40" as="geometry" />
        </mxCell>
        <mxCell id="qPm-kybPAPJAVNP7pBJh-46" value="&amp;lt;&amp;lt;include&amp;gt;&amp;gt;" style="html=1;verticalAlign=bottom;labelBackgroundColor=none;endArrow=open;endFill=0;dashed=1;rounded=0;exitX=1;exitY=0.5;exitDx=0;exitDy=0;entryX=0;entryY=0.5;entryDx=0;entryDy=0;" parent="1" source="qPm-kybPAPJAVNP7pBJh-40" target="qPm-kybPAPJAVNP7pBJh-42" edge="1">
          <mxGeometry x="-0.12" y="6" width="160" relative="1" as="geometry">
            <mxPoint x="120" y="570" as="sourcePoint" />
            <mxPoint x="280" y="570" as="targetPoint" />
            <mxPoint as="offset" />
          </mxGeometry>
        </mxCell>
        <mxCell id="qPm-kybPAPJAVNP7pBJh-47" value="&amp;lt;&amp;lt;include&amp;gt;&amp;gt;" style="html=1;verticalAlign=bottom;labelBackgroundColor=none;endArrow=open;endFill=0;dashed=1;rounded=0;exitX=1;exitY=0.5;exitDx=0;exitDy=0;entryX=0;entryY=0.5;entryDx=0;entryDy=0;" parent="1" source="qPm-kybPAPJAVNP7pBJh-40" target="qPm-kybPAPJAVNP7pBJh-41" edge="1">
          <mxGeometry x="-0.0769" y="-25" width="160" relative="1" as="geometry">
            <mxPoint x="140" y="650" as="sourcePoint" />
            <mxPoint x="300" y="650" as="targetPoint" />
            <mxPoint as="offset" />
          </mxGeometry>
        </mxCell>
        <mxCell id="qPm-kybPAPJAVNP7pBJh-48" value="" style="endArrow=open;startArrow=none;endFill=0;startFill=0;endSize=8;html=1;verticalAlign=bottom;labelBackgroundColor=none;strokeWidth=1;rounded=0;entryX=0;entryY=0.5;entryDx=0;entryDy=0;" parent="1" source="qPm-kybPAPJAVNP7pBJh-1" target="qPm-kybPAPJAVNP7pBJh-5" edge="1">
          <mxGeometry width="160" relative="1" as="geometry">
            <mxPoint x="30" y="270" as="sourcePoint" />
            <mxPoint x="190" y="270" as="targetPoint" />
          </mxGeometry>
        </mxCell>
        <mxCell id="qPm-kybPAPJAVNP7pBJh-49" value="" style="endArrow=open;startArrow=none;endFill=0;startFill=0;endSize=8;html=1;verticalAlign=bottom;labelBackgroundColor=none;strokeWidth=1;rounded=0;entryX=0;entryY=0.5;entryDx=0;entryDy=0;" parent="1" source="qPm-kybPAPJAVNP7pBJh-1" target="qPm-kybPAPJAVNP7pBJh-6" edge="1">
          <mxGeometry width="160" relative="1" as="geometry">
            <mxPoint x="44" y="320" as="sourcePoint" />
            <mxPoint x="110" y="90" as="targetPoint" />
          </mxGeometry>
        </mxCell>
        <mxCell id="qPm-kybPAPJAVNP7pBJh-50" value="" style="endArrow=open;startArrow=none;endFill=0;startFill=0;endSize=8;html=1;verticalAlign=bottom;labelBackgroundColor=none;strokeWidth=1;rounded=0;entryX=0;entryY=0.5;entryDx=0;entryDy=0;" parent="1" source="qPm-kybPAPJAVNP7pBJh-1" target="qPm-kybPAPJAVNP7pBJh-11" edge="1">
          <mxGeometry width="160" relative="1" as="geometry">
            <mxPoint x="54" y="330" as="sourcePoint" />
            <mxPoint x="120" y="100" as="targetPoint" />
          </mxGeometry>
        </mxCell>
        <mxCell id="qPm-kybPAPJAVNP7pBJh-51" value="" style="endArrow=open;startArrow=none;endFill=0;startFill=0;endSize=8;html=1;verticalAlign=bottom;labelBackgroundColor=none;strokeWidth=1;rounded=0;entryX=0;entryY=0.5;entryDx=0;entryDy=0;exitX=1;exitY=0.3333333333333333;exitDx=0;exitDy=0;exitPerimeter=0;" parent="1" source="qPm-kybPAPJAVNP7pBJh-1" target="qPm-kybPAPJAVNP7pBJh-12" edge="1">
          <mxGeometry width="160" relative="1" as="geometry">
            <mxPoint x="64" y="340" as="sourcePoint" />
            <mxPoint x="130" y="110" as="targetPoint" />
          </mxGeometry>
        </mxCell>
        <mxCell id="qPm-kybPAPJAVNP7pBJh-52" value="" style="endArrow=open;startArrow=none;endFill=0;startFill=0;endSize=8;html=1;verticalAlign=bottom;labelBackgroundColor=none;strokeWidth=1;rounded=0;entryX=0;entryY=0.5;entryDx=0;entryDy=0;" parent="1" source="qPm-kybPAPJAVNP7pBJh-1" target="qPm-kybPAPJAVNP7pBJh-27" edge="1">
          <mxGeometry width="160" relative="1" as="geometry">
            <mxPoint x="74" y="350" as="sourcePoint" />
            <mxPoint x="140" y="120" as="targetPoint" />
          </mxGeometry>
        </mxCell>
        <mxCell id="qPm-kybPAPJAVNP7pBJh-53" value="" style="endArrow=open;startArrow=none;endFill=0;startFill=0;endSize=8;html=1;verticalAlign=bottom;labelBackgroundColor=none;strokeWidth=1;rounded=0;entryX=0;entryY=0.5;entryDx=0;entryDy=0;" parent="1" source="qPm-kybPAPJAVNP7pBJh-1" target="qPm-kybPAPJAVNP7pBJh-30" edge="1">
          <mxGeometry width="160" relative="1" as="geometry">
            <mxPoint x="84" y="360" as="sourcePoint" />
            <mxPoint x="150" y="130" as="targetPoint" />
          </mxGeometry>
        </mxCell>
        <mxCell id="qPm-kybPAPJAVNP7pBJh-55" value="" style="endArrow=open;startArrow=none;endFill=0;startFill=0;endSize=8;html=1;verticalAlign=bottom;labelBackgroundColor=none;strokeWidth=1;rounded=0;exitX=0.64;exitY=0.733;exitDx=0;exitDy=0;exitPerimeter=0;" parent="1" source="qPm-kybPAPJAVNP7pBJh-1" edge="1">
          <mxGeometry width="160" relative="1" as="geometry">
            <mxPoint x="94" y="370" as="sourcePoint" />
            <mxPoint x="100" y="480" as="targetPoint" />
          </mxGeometry>
        </mxCell>
        <mxCell id="qPm-kybPAPJAVNP7pBJh-56" value="" style="endArrow=open;startArrow=none;endFill=0;startFill=0;endSize=8;html=1;verticalAlign=bottom;labelBackgroundColor=none;strokeWidth=1;rounded=0;entryX=0;entryY=0.5;entryDx=0;entryDy=0;exitX=0.613;exitY=0.72;exitDx=0;exitDy=0;exitPerimeter=0;" parent="1" source="qPm-kybPAPJAVNP7pBJh-1" target="qPm-kybPAPJAVNP7pBJh-40" edge="1">
          <mxGeometry width="160" relative="1" as="geometry">
            <mxPoint x="104" y="380" as="sourcePoint" />
            <mxPoint x="170" y="150" as="targetPoint" />
          </mxGeometry>
        </mxCell>
        <mxCell id="qPm-kybPAPJAVNP7pBJh-57" value="Κατάστημα" style="shape=umlActor;verticalLabelPosition=bottom;verticalAlign=top;html=1;" parent="1" vertex="1">
          <mxGeometry x="780" y="310" width="30" height="60" as="geometry" />
        </mxCell>
        <mxCell id="qPm-kybPAPJAVNP7pBJh-58" value="Προβολή Στατιστικών" style="ellipse;whiteSpace=wrap;html=1;" parent="1" vertex="1">
          <mxGeometry x="640" y="60" width="90" height="40" as="geometry" />
        </mxCell>
        <mxCell id="qPm-kybPAPJAVNP7pBJh-59" value="Προσθήκη Συνόλου" style="ellipse;whiteSpace=wrap;html=1;" parent="1" vertex="1">
          <mxGeometry x="640" y="120" width="90" height="40" as="geometry" />
        </mxCell>
        <mxCell id="qPm-kybPAPJAVNP7pBJh-60" value="Επεξεργασία Συνόλου" style="ellipse;whiteSpace=wrap;html=1;" parent="1" vertex="1">
          <mxGeometry x="490" y="120" width="90" height="40" as="geometry" />
        </mxCell>
        <mxCell id="qPm-kybPAPJAVNP7pBJh-61" value="Επεξεργασία Ρυθμίσεων Προφίλ" style="ellipse;whiteSpace=wrap;html=1;" parent="1" vertex="1">
          <mxGeometry x="640" y="180" width="90" height="55" as="geometry" />
        </mxCell>
        <mxCell id="qPm-kybPAPJAVNP7pBJh-62" value="&amp;lt;&amp;lt;extend&amp;gt;&amp;gt;" style="html=1;verticalAlign=bottom;labelBackgroundColor=none;endArrow=open;endFill=0;dashed=1;rounded=0;entryX=0;entryY=0.5;entryDx=0;entryDy=0;exitX=1;exitY=0.5;exitDx=0;exitDy=0;" parent="1" source="qPm-kybPAPJAVNP7pBJh-60" target="qPm-kybPAPJAVNP7pBJh-59" edge="1">
          <mxGeometry width="160" relative="1" as="geometry">
            <mxPoint x="560" y="430" as="sourcePoint" />
            <mxPoint x="720" y="430" as="targetPoint" />
          </mxGeometry>
        </mxCell>
        <mxCell id="qPm-kybPAPJAVNP7pBJh-63" value="Φιλτράρισμα Στατιστικών" style="ellipse;whiteSpace=wrap;html=1;" parent="1" vertex="1">
          <mxGeometry x="485" y="60" width="90" height="40" as="geometry" />
        </mxCell>
        <mxCell id="qPm-kybPAPJAVNP7pBJh-65" value="&amp;lt;&amp;lt;include&amp;gt;&amp;gt;" style="html=1;verticalAlign=bottom;labelBackgroundColor=none;endArrow=open;endFill=0;dashed=1;rounded=0;exitX=0;exitY=0.5;exitDx=0;exitDy=0;entryX=1;entryY=0.5;entryDx=0;entryDy=0;" parent="1" source="qPm-kybPAPJAVNP7pBJh-58" target="qPm-kybPAPJAVNP7pBJh-63" edge="1">
          <mxGeometry width="160" relative="1" as="geometry">
            <mxPoint x="580" y="400" as="sourcePoint" />
            <mxPoint x="740" y="400" as="targetPoint" />
          </mxGeometry>
        </mxCell>
        <mxCell id="qPm-kybPAPJAVNP7pBJh-66" value="Προβολή Ομάδας" style="ellipse;whiteSpace=wrap;html=1;" parent="1" vertex="1">
          <mxGeometry x="640" y="310" width="90" height="40" as="geometry" />
        </mxCell>
        <mxCell id="qPm-kybPAPJAVNP7pBJh-67" value="Επεξεργασία Στοιχείων Επικοινωνίας" style="ellipse;whiteSpace=wrap;html=1;" parent="1" vertex="1">
          <mxGeometry x="485" y="300" width="90" height="60" as="geometry" />
        </mxCell>
        <mxCell id="qPm-kybPAPJAVNP7pBJh-68" value="&amp;lt;&amp;lt;extend&amp;gt;&amp;gt;" style="html=1;verticalAlign=bottom;labelBackgroundColor=none;endArrow=open;endFill=0;dashed=1;rounded=0;exitX=1;exitY=0.5;exitDx=0;exitDy=0;entryX=0;entryY=0.5;entryDx=0;entryDy=0;" parent="1" source="qPm-kybPAPJAVNP7pBJh-67" target="L7gIlf1aYXezzUbaL7ZP-4" edge="1">
          <mxGeometry width="160" relative="1" as="geometry">
            <mxPoint x="570" y="440" as="sourcePoint" />
            <mxPoint x="730" y="440" as="targetPoint" />
          </mxGeometry>
        </mxCell>
        <mxCell id="qPm-kybPAPJAVNP7pBJh-69" value="Σύνδεση" style="ellipse;whiteSpace=wrap;html=1;" parent="1" vertex="1">
          <mxGeometry x="640" y="440" width="90" height="40" as="geometry" />
        </mxCell>
        <mxCell id="qPm-kybPAPJAVNP7pBJh-70" value="Αποσύνδεση" style="ellipse;whiteSpace=wrap;html=1;" parent="1" vertex="1">
          <mxGeometry x="485" y="440" width="90" height="40" as="geometry" />
        </mxCell>
        <mxCell id="qPm-kybPAPJAVNP7pBJh-72" value="Αλλαγή Στοιχείων Σύνδεσης" style="ellipse;whiteSpace=wrap;html=1;" parent="1" vertex="1">
          <mxGeometry x="640" y="500" width="90" height="50" as="geometry" />
        </mxCell>
        <mxCell id="qPm-kybPAPJAVNP7pBJh-73" value="Αλλαγή Κωδικού" style="ellipse;whiteSpace=wrap;html=1;" parent="1" vertex="1">
          <mxGeometry x="485" y="505.5" width="90" height="40" as="geometry" />
        </mxCell>
        <mxCell id="qPm-kybPAPJAVNP7pBJh-74" value="&amp;lt;&amp;lt;extend&amp;gt;&amp;gt;" style="html=1;verticalAlign=bottom;labelBackgroundColor=none;endArrow=open;endFill=0;dashed=1;rounded=0;exitX=1;exitY=0.5;exitDx=0;exitDy=0;entryX=0;entryY=0.5;entryDx=0;entryDy=0;" parent="1" source="qPm-kybPAPJAVNP7pBJh-70" target="qPm-kybPAPJAVNP7pBJh-69" edge="1">
          <mxGeometry width="160" relative="1" as="geometry">
            <mxPoint x="530" y="760" as="sourcePoint" />
            <mxPoint x="690" y="760" as="targetPoint" />
          </mxGeometry>
        </mxCell>
        <mxCell id="qPm-kybPAPJAVNP7pBJh-75" value="&amp;lt;&amp;lt;include&amp;gt;&amp;gt;" style="html=1;verticalAlign=bottom;labelBackgroundColor=none;endArrow=open;endFill=0;dashed=1;rounded=0;exitX=0;exitY=0.5;exitDx=0;exitDy=0;entryX=1;entryY=0.5;entryDx=0;entryDy=0;" parent="1" source="qPm-kybPAPJAVNP7pBJh-72" target="qPm-kybPAPJAVNP7pBJh-73" edge="1">
          <mxGeometry width="160" relative="1" as="geometry">
            <mxPoint x="620" y="770" as="sourcePoint" />
            <mxPoint x="780" y="770" as="targetPoint" />
          </mxGeometry>
        </mxCell>
        <mxCell id="qPm-kybPAPJAVNP7pBJh-76" value="Προβολή Ημερολογίου" style="ellipse;whiteSpace=wrap;html=1;" parent="1" vertex="1">
          <mxGeometry x="640" y="380" width="90" height="40" as="geometry" />
        </mxCell>
        <mxCell id="qPm-kybPAPJAVNP7pBJh-77" value="Προσθήκη Γεγονότος" style="ellipse;whiteSpace=wrap;html=1;" parent="1" vertex="1">
          <mxGeometry x="485" y="380" width="90" height="40" as="geometry" />
        </mxCell>
        <mxCell id="qPm-kybPAPJAVNP7pBJh-78" value="&amp;lt;&amp;lt;extend&amp;gt;&amp;gt;" style="html=1;verticalAlign=bottom;labelBackgroundColor=none;endArrow=open;endFill=0;dashed=1;rounded=0;exitX=1;exitY=0.5;exitDx=0;exitDy=0;entryX=0;entryY=0.5;entryDx=0;entryDy=0;" parent="1" source="qPm-kybPAPJAVNP7pBJh-77" target="qPm-kybPAPJAVNP7pBJh-76" edge="1">
          <mxGeometry width="160" relative="1" as="geometry">
            <mxPoint x="540" y="630" as="sourcePoint" />
            <mxPoint x="700" y="630" as="targetPoint" />
          </mxGeometry>
        </mxCell>
        <mxCell id="qPm-kybPAPJAVNP7pBJh-79" value="" style="endArrow=open;startArrow=none;endFill=0;startFill=0;endSize=8;html=1;verticalAlign=bottom;labelBackgroundColor=none;strokeWidth=1;rounded=0;exitX=0;exitY=0.3333333333333333;exitDx=0;exitDy=0;exitPerimeter=0;entryX=1;entryY=0.5;entryDx=0;entryDy=0;" parent="1" source="qPm-kybPAPJAVNP7pBJh-57" target="qPm-kybPAPJAVNP7pBJh-58" edge="1">
          <mxGeometry width="160" relative="1" as="geometry">
            <mxPoint x="690" y="640" as="sourcePoint" />
            <mxPoint x="850" y="640" as="targetPoint" />
          </mxGeometry>
        </mxCell>
        <mxCell id="qPm-kybPAPJAVNP7pBJh-80" value="" style="endArrow=open;startArrow=none;endFill=0;startFill=0;endSize=8;html=1;verticalAlign=bottom;labelBackgroundColor=none;strokeWidth=1;rounded=0;exitX=0;exitY=0.3333333333333333;exitDx=0;exitDy=0;exitPerimeter=0;entryX=1;entryY=0.5;entryDx=0;entryDy=0;" parent="1" source="qPm-kybPAPJAVNP7pBJh-57" target="qPm-kybPAPJAVNP7pBJh-59" edge="1">
          <mxGeometry width="160" relative="1" as="geometry">
            <mxPoint x="770" y="600" as="sourcePoint" />
            <mxPoint x="930" y="600" as="targetPoint" />
          </mxGeometry>
        </mxCell>
        <mxCell id="qPm-kybPAPJAVNP7pBJh-81" value="" style="endArrow=open;startArrow=none;endFill=0;startFill=0;endSize=8;html=1;verticalAlign=bottom;labelBackgroundColor=none;strokeWidth=1;rounded=0;exitX=0;exitY=0.3333333333333333;exitDx=0;exitDy=0;exitPerimeter=0;entryX=1;entryY=0.5;entryDx=0;entryDy=0;" parent="1" source="qPm-kybPAPJAVNP7pBJh-57" target="qPm-kybPAPJAVNP7pBJh-61" edge="1">
          <mxGeometry width="160" relative="1" as="geometry">
            <mxPoint x="730" y="620" as="sourcePoint" />
            <mxPoint x="890" y="620" as="targetPoint" />
          </mxGeometry>
        </mxCell>
        <mxCell id="qPm-kybPAPJAVNP7pBJh-82" value="" style="endArrow=open;startArrow=none;endFill=0;startFill=0;endSize=8;html=1;verticalAlign=bottom;labelBackgroundColor=none;strokeWidth=1;rounded=0;exitX=0;exitY=0.3333333333333333;exitDx=0;exitDy=0;exitPerimeter=0;entryX=1;entryY=0.5;entryDx=0;entryDy=0;" parent="1" source="qPm-kybPAPJAVNP7pBJh-57" target="qPm-kybPAPJAVNP7pBJh-66" edge="1">
          <mxGeometry width="160" relative="1" as="geometry">
            <mxPoint x="580" y="620" as="sourcePoint" />
            <mxPoint x="740" y="620" as="targetPoint" />
          </mxGeometry>
        </mxCell>
        <mxCell id="qPm-kybPAPJAVNP7pBJh-83" value="" style="endArrow=open;startArrow=none;endFill=0;startFill=0;endSize=8;html=1;verticalAlign=bottom;labelBackgroundColor=none;strokeWidth=1;rounded=0;exitX=0;exitY=0.3333333333333333;exitDx=0;exitDy=0;exitPerimeter=0;entryX=1;entryY=0.5;entryDx=0;entryDy=0;" parent="1" source="qPm-kybPAPJAVNP7pBJh-57" target="qPm-kybPAPJAVNP7pBJh-76" edge="1">
          <mxGeometry width="160" relative="1" as="geometry">
            <mxPoint x="640" y="610" as="sourcePoint" />
            <mxPoint x="800" y="610" as="targetPoint" />
          </mxGeometry>
        </mxCell>
        <mxCell id="qPm-kybPAPJAVNP7pBJh-84" value="" style="endArrow=open;startArrow=none;endFill=0;startFill=0;endSize=8;html=1;verticalAlign=bottom;labelBackgroundColor=none;strokeWidth=1;rounded=0;exitX=0;exitY=0.3333333333333333;exitDx=0;exitDy=0;exitPerimeter=0;entryX=1;entryY=0.5;entryDx=0;entryDy=0;" parent="1" source="qPm-kybPAPJAVNP7pBJh-57" target="qPm-kybPAPJAVNP7pBJh-69" edge="1">
          <mxGeometry width="160" relative="1" as="geometry">
            <mxPoint x="590" y="610" as="sourcePoint" />
            <mxPoint x="750" y="610" as="targetPoint" />
          </mxGeometry>
        </mxCell>
        <mxCell id="qPm-kybPAPJAVNP7pBJh-85" value="" style="endArrow=open;startArrow=none;endFill=0;startFill=0;endSize=8;html=1;verticalAlign=bottom;labelBackgroundColor=none;strokeWidth=1;rounded=0;exitX=0;exitY=0.3333333333333333;exitDx=0;exitDy=0;exitPerimeter=0;entryX=1;entryY=0.5;entryDx=0;entryDy=0;" parent="1" source="qPm-kybPAPJAVNP7pBJh-57" target="qPm-kybPAPJAVNP7pBJh-72" edge="1">
          <mxGeometry width="160" relative="1" as="geometry">
            <mxPoint x="630" y="620" as="sourcePoint" />
            <mxPoint x="790" y="620" as="targetPoint" />
          </mxGeometry>
        </mxCell>
        <mxCell id="L7gIlf1aYXezzUbaL7ZP-1" value="Διαγραφή Συνόλου" style="ellipse;whiteSpace=wrap;html=1;" vertex="1" parent="1">
          <mxGeometry x="490" y="180" width="90" height="40" as="geometry" />
        </mxCell>
        <mxCell id="L7gIlf1aYXezzUbaL7ZP-3" value="&amp;lt;&amp;lt;extend&amp;gt;&amp;gt;" style="html=1;verticalAlign=bottom;labelBackgroundColor=none;endArrow=open;endFill=0;dashed=1;rounded=0;exitX=1;exitY=0.5;exitDx=0;exitDy=0;" edge="1" parent="1" source="L7gIlf1aYXezzUbaL7ZP-1">
          <mxGeometry x="-0.2787" y="-3" width="160" relative="1" as="geometry">
            <mxPoint x="590" y="260" as="sourcePoint" />
            <mxPoint x="640" y="140" as="targetPoint" />
            <mxPoint as="offset" />
          </mxGeometry>
        </mxCell>
        <mxCell id="L7gIlf1aYXezzUbaL7ZP-4" value="Προσθήκη Επαφής" style="ellipse;whiteSpace=wrap;html=1;" vertex="1" parent="1">
          <mxGeometry x="640" y="245" width="90" height="55" as="geometry" />
        </mxCell>
        <mxCell id="L7gIlf1aYXezzUbaL7ZP-6" value="" style="endArrow=open;startArrow=none;endFill=0;startFill=0;endSize=8;html=1;verticalAlign=bottom;labelBackgroundColor=none;strokeWidth=1;rounded=0;entryX=1;entryY=0.5;entryDx=0;entryDy=0;" edge="1" parent="1" target="L7gIlf1aYXezzUbaL7ZP-4">
          <mxGeometry width="160" relative="1" as="geometry">
            <mxPoint x="780" y="330" as="sourcePoint" />
            <mxPoint x="740" y="217" as="targetPoint" />
          </mxGeometry>
        </mxCell>
      </root>
    </mxGraphModel>
  </diagram>
</mxfile>
